<svg xmlns="http://www.w3.org/2000/svg" version="1.1" xmlns:xlink="http://www.w3.org/1999/xlink" xmlns:svgjs="http://svgjs.com/svgjs" width="1300" height="1000" preserveAspectRatio="none" viewBox="0 0 1300 1000"><g mask="url(&quot;#SvgjsMask1101&quot;)" fill="none"><path d="M217.64669624786882 398.29303956316926L-10.447549592449121 552.1445510252139 143.40396186959555 780.2387968655319 371.49820770991346 626.3872854034872z" fill="rgba(102, 28, 142, 0.4)" class="triangle-float3"></path><path d="M290.315,1112.358C350.434,1109.646,407.952,1082.803,437.45,1030.348C466.417,978.837,459.537,915.934,429.344,865.132C399.849,815.505,347.879,787.159,290.315,782.782C222.539,777.629,146.434,783.973,109.116,840.785C69.069,901.751,77.75,984.073,118.235,1044.75C154.896,1099.695,224.329,1115.335,290.315,1112.358" fill="rgba(102, 28, 142, 0.4)" class="triangle-float3"></path><path d="M1025.2988573570037-150.98603294567735L818.3086418546039-40.92738310140933 928.3672916988719 166.06283240099046 1135.3575072012718 56.00418255672244z" fill="rgba(102, 28, 142, 0.4)" class="triangle-float3"></path><path d="M-95.97 135.64 a325.4 325.4 0 1 0 650.8 0 a325.4 325.4 0 1 0 -650.8 0z" fill="rgba(102, 28, 142, 0.4)" class="triangle-float1"></path><path d="M737.7486599015145 500.2802571850571L881.2627169848496 456.40360671407194 837.3860665138644 312.8895496307369 693.8720094305294 356.76620010172206z" fill="rgba(102, 28, 142, 0.4)" class="triangle-float3"></path><path d="M215.26781812611435 550.5671606176676L4.157890307479988 599.3057277818039 52.89645747161629 810.4156556004382 264.00638529025065 761.6770884363019z" fill="rgba(102, 28, 142, 0.4)" class="triangle-float1"></path><path d="M486.5793360003082 360.4194614063173L476.91410424091896 498.63871509111584 689.0756006478114 444.02693588780045z" fill="rgba(102, 28, 142, 0.4)" class="triangle-float2"></path><path d="M469.632,344.701C499.566,345.629,529.327,329.592,542.047,302.48C553.473,278.126,538.352,252.015,523.704,229.452C510.789,209.559,493.345,191.431,469.632,190.935C445.174,190.423,424.174,206.184,411.492,227.103C398.259,248.932,393.282,275.337,404.595,298.22C417.253,323.822,441.086,343.816,469.632,344.701" fill="rgba(102, 28, 142, 0.4)" class="triangle-float3"></path><path d="M1127.5071541060906 108.59328657786075L1288.3381665441107 139.8556684944952 1319.6005484607451-20.97534394352475 1158.769536022725-52.237725860159216z" fill="rgba(102, 28, 142, 0.4)" class="triangle-float1"></path><path d="M653.91 87.23 a283.09 283.09 0 1 0 566.18 0 a283.09 283.09 0 1 0 -566.18 0z" fill="rgba(102, 28, 142, 0.4)" class="triangle-float3"></path><path d="M963.665,523.252C1038.696,522.665,1101.982,475.005,1141.189,411.03C1182.56,343.524,1204.749,260.725,1167.308,190.964C1128.148,118,1046.455,82.062,963.665,80.265C877.268,78.39,785.573,105.956,744.114,181.778C703.831,255.449,735.857,343.218,781.267,413.844C822.363,477.762,887.678,523.846,963.665,523.252" fill="rgba(102, 28, 142, 0.4)" class="triangle-float1"></path><path d="M797.489,742.921C886.041,744.937,986.008,744.372,1034.53,670.27C1086.339,591.149,1069.223,485.607,1018.062,406.066C970.904,332.75,884.658,300.903,797.489,301.738C711.975,302.557,628.738,337.27,584.117,410.224C537.564,486.335,530.266,584.786,578.431,659.887C623.614,730.338,713.816,741.016,797.489,742.921" fill="rgba(102, 28, 142, 0.4)" class="triangle-float2"></path><path d="M1319.2179397576642 244.65104047321415L1207.2773273522776 58.35057600517726 1020.9768628842406 170.29118841056396 1132.9174752896274 356.5916528786009z" fill="rgba(102, 28, 142, 0.4)" class="triangle-float1"></path><path d="M-250.25 696.53 a312.36 312.36 0 1 0 624.72 0 a312.36 312.36 0 1 0 -624.72 0z" fill="rgba(102, 28, 142, 0.4)" class="triangle-float1"></path><path d="M600.2105070252297 913.1603682075313L790.8512714250658 879.5452578209544 645.1082236452824 610.3916664144888z" fill="rgba(102, 28, 142, 0.4)" class="triangle-float2"></path><path d="M688.3108897914899 878.8322292813824L695.5602332351203 1086.426264268028 903.154268221766 1079.1769208243977 895.9049247781356 871.582885837752z" fill="rgba(102, 28, 142, 0.4)" class="triangle-float2"></path><path d="M730.0656642023417 1055.222053409857L783.8722328799549 803.2630162419996 568.4950856998697 869.1104182199894z" fill="rgba(102, 28, 142, 0.4)" class="triangle-float2"></path></g><defs><mask id="SvgjsMask1101"><rect width="1300" height="1000" fill="#ffffff"></rect></mask><style>
            @keyframes float1 {
                0%{transform: translate(0, 0)}
                50%{transform: translate(-10px, 0)}
                100%{transform: translate(0, 0)}
            }

            .triangle-float1 {
                animation: float1 5s infinite;
            }

            @keyframes float2 {
                0%{transform: translate(0, 0)}
                50%{transform: translate(-5px, -5px)}
                100%{transform: translate(0, 0)}
            }

            .triangle-float2 {
                animation: float2 4s infinite;
            }

            @keyframes float3 {
                0%{transform: translate(0, 0)}
                50%{transform: translate(0, -10px)}
                100%{transform: translate(0, 0)}
            }

            .triangle-float3 {
                animation: float3 6s infinite;
            }
        </style></defs></svg>