<svg xmlns="http://www.w3.org/2000/svg" version="1.1" xmlns:xlink="http://www.w3.org/1999/xlink" xmlns:svgjs="http://svgjs.com/svgjs" width="1300" height="560" preserveAspectRatio="none" viewBox="0 0 1300 560"><g mask="url(&quot;#SvgjsMask1094&quot;)" fill="none"><path d="M607.6762313644421 438.8203911817949L549.5803157682546 358.85822330198323 458.6850217466309 485.98318063617023z" fill="rgba(102, 28, 142, 0.4)" class="triangle-float1"></path><path d="M11.731381700339998 392.7141539834199L97.6095584656861 475.64574528661217 180.54114976887837 389.76756852126607 94.66297300353226 306.8359772180738z" fill="rgba(102, 28, 142, 0.4)" class="triangle-float2"></path><path d="M-113.7 507.63 a119.41 119.41 0 1 0 238.82 0 a119.41 119.41 0 1 0 -238.82 0z" fill="rgba(102, 28, 142, 0.4)" class="triangle-float1"></path><path d="M503.22 155.15 a134.01 134.01 0 1 0 268.02 0 a134.01 134.01 0 1 0 -268.02 0z" fill="rgba(102, 28, 142, 0.4)" class="triangle-float3"></path><path d="M521.4730026162513 184.91619290588255L450.1167346696784 38.25959392312657 368.3417114620609 155.04643031837577z" fill="rgba(102, 28, 142, 0.4)" class="triangle-float3"></path><path d="M747.62,542.547C792.827,544.895,837.924,522.885,859.516,483.098C880.305,444.79,869.573,398.33,845.66,361.891C824.15,329.114,786.763,314.796,747.62,312.592C703.085,310.085,650.903,311.149,628.394,349.659C605.777,388.355,630.628,434.308,654.194,472.434C676.136,507.932,705.944,540.383,747.62,542.547" fill="rgba(102, 28, 142, 0.4)" class="triangle-float1"></path><path d="M332.85 299.47 a171.39 171.39 0 1 0 342.78 0 a171.39 171.39 0 1 0 -342.78 0z" fill="rgba(102, 28, 142, 0.4)" class="triangle-float2"></path><path d="M359.91 261.17 a95.22 95.22 0 1 0 190.44 0 a95.22 95.22 0 1 0 -190.44 0z" fill="rgba(102, 28, 142, 0.4)" class="triangle-float3"></path><path d="M198.118,521.499C225.117,521.546,249.89,508.93,265.194,486.688C283.18,460.549,296.534,427.732,282.067,399.493C266.648,369.395,231.936,355.672,198.118,355.758C164.461,355.843,130.197,369.936,114.903,399.917C100.6,427.956,113.67,460.479,131.448,486.454C146.646,508.66,171.209,521.452,198.118,521.499" fill="rgba(102, 28, 142, 0.4)" class="triangle-float2"></path><path d="M186.19,291.377C209.237,291.7,230.183,278.736,241.939,258.911C253.947,238.662,255.934,213.638,244.489,193.065C232.735,171.936,210.338,157.497,186.19,158.7C163.675,159.822,147.839,178.564,137.156,198.415C127.148,217.012,123.227,238.707,133.08,257.387C143.59,277.313,163.664,291.062,186.19,291.377" fill="rgba(102, 28, 142, 0.4)" class="triangle-float3"></path><path d="M354.3726056121377 185.97953258223112L316.81398545715047 35.340134974693086 166.1745878496124 72.89875512968035 203.73320800459967 223.53815273721838z" fill="rgba(102, 28, 142, 0.4)" class="triangle-float1"></path><path d="M865.6825800815892 109.32926049101403L988.1816972512535 151.50908913613551 1030.3615258963748 29.009971966471284 907.8624087267107-13.169856678650191z" fill="rgba(102, 28, 142, 0.4)" class="triangle-float1"></path><path d="M371.038,97.831C393.476,98.061,411.019,80.513,421.789,60.828C432.07,42.036,433.232,20.273,424.062,0.914C413.202,-22.012,396.35,-44.623,371.038,-46.311C343.401,-48.154,315.777,-32.228,304.17,-7.079C293.805,15.379,308.767,38.945,322.062,59.803C333.969,78.484,348.886,97.603,371.038,97.831" fill="rgba(102, 28, 142, 0.4)" class="triangle-float1"></path><path d="M587.52389956037 419.1157115573042L574.0021005331815 504.4889906463469 672.8971786494127 432.6375105844927z" fill="rgba(102, 28, 142, 0.4)" class="triangle-float1"></path><path d="M551.2749239720689 324.5890047089314L635.8228513804742 369.54393513941045 680.7777818109532 284.9960077310052 596.229854402548 240.04107730052613z" fill="rgba(102, 28, 142, 0.4)" class="triangle-float3"></path><path d="M719.5235600927705 504.35670893692503L660.337403019546 493.9205925604664 674.2763069914703 587.9178863585324z" fill="rgba(102, 28, 142, 0.4)" class="triangle-float2"></path><path d="M875.78 34.81 a130.38 130.38 0 1 0 260.76 0 a130.38 130.38 0 1 0 -260.76 0z" fill="rgba(102, 28, 142, 0.4)" class="triangle-float3"></path></g><defs><mask id="SvgjsMask1094"><rect width="1300" height="560" fill="#ffffff"></rect></mask><style>
            @keyframes float1 {
                0%{transform: translate(0, 0)}
                50%{transform: translate(-10px, 0)}
                100%{transform: translate(0, 0)}
            }

            .triangle-float1 {
                animation: float1 5s infinite;
            }

            @keyframes float2 {
                0%{transform: translate(0, 0)}
                50%{transform: translate(-5px, -5px)}
                100%{transform: translate(0, 0)}
            }

            .triangle-float2 {
                animation: float2 4s infinite;
            }

            @keyframes float3 {
                0%{transform: translate(0, 0)}
                50%{transform: translate(0, -10px)}
                100%{transform: translate(0, 0)}
            }

            .triangle-float3 {
                animation: float3 6s infinite;
            }
        </style></defs></svg>