<svg xmlns="http://www.w3.org/2000/svg" version="1.1" xmlns:xlink="http://www.w3.org/1999/xlink" xmlns:svgjs="http://svgjs.com/svgjs" width="1200" height="500" preserveAspectRatio="none" viewBox="0 0 1200 500"><g clip-path="url(&quot;#SvgjsClipPath1008&quot;)" fill="none"><circle r="83.335" cx="-38.76" cy="35.89" stroke="#365aa3" stroke-opacity="0.25" stroke-width="2"></circle><circle r="83.335" cx="279.89" cy="342.39" stroke="#365aa3" stroke-opacity="0.25" stroke-width="2"></circle><circle r="83.335" cx="589.47" cy="634.83" stroke="#365aa3" stroke-opacity="0.25" stroke-width="2"></circle><circle r="42.315" cx="452.88" cy="258.89" stroke="#365aa3" stroke-opacity="0.25" stroke-width="2"></circle><circle r="70.845" cx="219.69" cy="386.81" stroke="#365aa3" stroke-opacity="0.25" stroke-width="2"></circle><circle r="56.275" cx="1003.52" cy="199.47" stroke="#365aa3" stroke-opacity="0.25" stroke-width="2"></circle><circle r="62.85" cx="579.5" cy="215.87" stroke="#365aa3" stroke-opacity="0.25" stroke-width="2"></circle><circle r="108.87" cx="322.42" cy="131.48" stroke="#365aa3" stroke-opacity="0.25" stroke-width="2"></circle><circle r="99.905" cx="377.64" cy="309.32" stroke="#365aa3" stroke-opacity="0.25" stroke-width="2"></circle><circle r="130.38" cx="1013.57" cy="104.04" stroke="#365aa3" stroke-opacity="0.25" stroke-width="2"></circle><circle r="159.61" cx="1158.02" cy="57.77" stroke="#365aa3" stroke-opacity="0.25" stroke-width="2"></circle><circle r="155.375" cx="303.13" cy="447.06" stroke="#365aa3" stroke-opacity="0.25" stroke-width="2"></circle><circle r="135.605" cx="209.61" cy="302.74" stroke="#365aa3" stroke-opacity="0.25" stroke-width="2"></circle><circle r="109.405" cx="769.81" cy="77.26" stroke="#365aa3" stroke-opacity="0.25" stroke-width="2"></circle><circle r="60.725" cx="739.79" cy="344.13" stroke="#365aa3" stroke-opacity="0.25" stroke-width="2"></circle><circle r="90.075" cx="121.04" cy="125.12" stroke="#365aa3" stroke-opacity="0.25" stroke-width="2"></circle><circle r="70.215" cx="1001.96" cy="442.21" stroke="#365aa3" stroke-opacity="0.25" stroke-width="2"></circle><circle r="46.445" cx="251.33" cy="400.05" stroke="#365aa3" stroke-opacity="0.25" stroke-width="2"></circle><circle r="154.065" cx="228.44" cy="47.17" stroke="#365aa3" stroke-opacity="0.25" stroke-width="2"></circle><circle r="73.81" cx="192.82" cy="202.72" stroke="#365aa3" stroke-opacity="0.25" stroke-width="2"></circle><circle r="83.05" cx="525.15" cy="326.87" stroke="#365aa3" stroke-opacity="0.25" stroke-width="2"></circle><circle r="90.455" cx="412.66" cy="172.95" stroke="#365aa3" stroke-opacity="0.25" stroke-width="2"></circle><circle r="44.15" cx="343.13" cy="437.08" stroke="#365aa3" stroke-opacity="0.25" stroke-width="2"></circle><circle r="136.055" cx="585.16" cy="442.07" stroke="#365aa3" stroke-opacity="0.25" stroke-width="2"></circle><circle r="130.595" cx="754.74" cy="478.83" stroke="#365aa3" stroke-opacity="0.25" stroke-width="2"></circle><circle r="112.905" cx="1130.07" cy="351.02" stroke="#365aa3" stroke-opacity="0.25" stroke-width="2"></circle><circle r="93.015" cx="1025.39" cy="195.59" stroke="#365aa3" stroke-opacity="0.25" stroke-width="2"></circle><circle r="69.755" cx="837.8" cy="255.57" stroke="#365aa3" stroke-opacity="0.25" stroke-width="2"></circle><circle r="110.655" cx="807.88" cy="113.21" stroke="#365aa3" stroke-opacity="0.25" stroke-width="2"></circle><circle r="122.075" cx="1032.36" cy="139.7" stroke="#365aa3" stroke-opacity="0.25" stroke-width="2"></circle><circle r="122.195" cx="194.85" cy="260.93" stroke="#365aa3" stroke-opacity="0.25" stroke-width="2"></circle><circle r="54.53" cx="37.26" cy="417.63" stroke="#365aa3" stroke-opacity="0.25" stroke-width="2"></circle><circle r="124.91" cx="1019.01" cy="238.1" stroke="#365aa3" stroke-opacity="0.25" stroke-width="2"></circle><circle r="44.96" cx="23" cy="486.06" stroke="#365aa3" stroke-opacity="0.25" stroke-width="2"></circle><circle r="97.415" cx="389.96" cy="136.61" stroke="#365aa3" stroke-opacity="0.25" stroke-width="2"></circle><circle r="86.69" cx="383.33" cy="296.6" stroke="#365aa3" stroke-opacity="0.25" stroke-width="2"></circle><circle r="81.725" cx="258.63" cy="234.27" stroke="#365aa3" stroke-opacity="0.25" stroke-width="2"></circle><circle r="64.285" cx="1083.97" cy="398.14" stroke="#365aa3" stroke-opacity="0.25" stroke-width="2"></circle><circle r="145.39" cx="342.15" cy="494.12" stroke="#365aa3" stroke-opacity="0.25" stroke-width="2"></circle><circle r="147.61" cx="338.68" cy="267.09" stroke="#365aa3" stroke-opacity="0.25" stroke-width="2"></circle></g><defs><clipPath id="SvgjsClipPath1008"><rect width="1200" height="500" x="0" y="0"></rect></clipPath></defs></svg>