<svg xmlns="http://www.w3.org/2000/svg" version="1.1" xmlns:xlink="http://www.w3.org/1999/xlink" xmlns:svgjs="http://svgjs.com/svgjs" width="1300" height="500" preserveAspectRatio="none" viewBox="0 0 1300 500"><g mask="url(&quot;#SvgjsMask3178&quot;)" fill="none"><use xlink:href="#SvgjsSymbol3185" x="0" y="0"></use><use xlink:href="#SvgjsSymbol3185" x="720" y="0"></use></g><defs><mask id="SvgjsMask3178"><rect width="1300" height="500" fill="#ffffff"></rect></mask><path d="M-1 0 a1 1 0 1 0 2 0 a1 1 0 1 0 -2 0z" id="SvgjsPath3179"></path><path d="M-3 0 a3 3 0 1 0 6 0 a3 3 0 1 0 -6 0z" id="SvgjsPath3184"></path><path d="M-5 0 a5 5 0 1 0 10 0 a5 5 0 1 0 -10 0z" id="SvgjsPath3183"></path><path d="M2 -2 L-2 2z" id="SvgjsPath3181"></path><path d="M6 -6 L-6 6z" id="SvgjsPath3180"></path><path d="M30 -30 L-30 30z" id="SvgjsPath3182"></path></defs><symbol id="SvgjsSymbol3185"><use xlink:href="#SvgjsPath3179" x="30" y="30" stroke="rgba(28, 83, 142, 0.38)"></use><use xlink:href="#SvgjsPath3180" x="30" y="90" stroke="rgba(28, 83, 142, 0.38)"></use><use xlink:href="#SvgjsPath3180" x="30" y="150" stroke="rgba(28, 83, 142, 0.38)"></use><use xlink:href="#SvgjsPath3181" x="30" y="210" stroke="rgba(28, 83, 142, 0.38)"></use><use xlink:href="#SvgjsPath3181" x="30" y="270" stroke="rgba(28, 83, 142, 0.38)"></use><use xlink:href="#SvgjsPath3182" x="30" y="330" stroke="rgba(28, 83, 142, 0.38)" stroke-width="3"></use><use xlink:href="#SvgjsPath3183" x="30" y="390" stroke="rgba(28, 83, 142, 0.38)"></use><use xlink:href="#SvgjsPath3180" x="30" y="450" stroke="rgba(28, 83, 142, 0.38)"></use><use xlink:href="#SvgjsPath3183" x="30" y="510" stroke="rgba(28, 83, 142, 0.38)"></use><use xlink:href="#SvgjsPath3180" x="90" y="30" stroke="rgba(28, 83, 142, 0.38)"></use><use xlink:href="#SvgjsPath3180" x="90" y="90" stroke="rgba(28, 83, 142, 0.38)"></use><use xlink:href="#SvgjsPath3183" x="90" y="150" stroke="rgba(28, 83, 142, 0.38)"></use><use xlink:href="#SvgjsPath3180" x="90" y="210" stroke="rgba(28, 83, 142, 0.38)"></use><use xlink:href="#SvgjsPath3183" x="90" y="270" stroke="rgba(28, 83, 142, 0.38)"></use><use xlink:href="#SvgjsPath3180" x="90" y="330" stroke="rgba(28, 83, 142, 0.38)"></use><use xlink:href="#SvgjsPath3179" x="90" y="390" stroke="rgba(28, 83, 142, 0.38)"></use><use xlink:href="#SvgjsPath3181" x="90" y="450" stroke="rgba(28, 83, 142, 0.38)"></use><use xlink:href="#SvgjsPath3180" x="90" y="510" stroke="rgba(28, 83, 142, 0.38)"></use><use xlink:href="#SvgjsPath3184" x="150" y="30" stroke="rgba(28, 83, 142, 0.38)"></use><use xlink:href="#SvgjsPath3181" x="150" y="90" stroke="rgba(28, 83, 142, 0.38)"></use><use xlink:href="#SvgjsPath3180" x="150" y="150" stroke="rgba(28, 83, 142, 0.38)"></use><use xlink:href="#SvgjsPath3180" x="150" y="210" stroke="rgba(28, 83, 142, 0.38)"></use><use xlink:href="#SvgjsPath3180" x="150" y="270" stroke="rgba(28, 83, 142, 0.38)"></use><use xlink:href="#SvgjsPath3180" x="150" y="330" stroke="rgba(28, 83, 142, 0.38)"></use><use xlink:href="#SvgjsPath3179" x="150" y="390" stroke="rgba(28, 83, 142, 0.38)"></use><use xlink:href="#SvgjsPath3183" x="150" y="450" stroke="rgba(28, 83, 142, 0.38)"></use><use xlink:href="#SvgjsPath3184" x="150" y="510" stroke="rgba(28, 83, 142, 0.38)"></use><use xlink:href="#SvgjsPath3183" x="210" y="30" stroke="rgba(28, 83, 142, 0.38)"></use><use xlink:href="#SvgjsPath3184" x="210" y="90" stroke="rgba(28, 83, 142, 0.38)"></use><use xlink:href="#SvgjsPath3183" x="210" y="150" stroke="rgba(28, 83, 142, 0.38)"></use><use xlink:href="#SvgjsPath3183" x="210" y="210" stroke="rgba(28, 83, 142, 0.38)"></use><use xlink:href="#SvgjsPath3179" x="210" y="270" stroke="rgba(28, 83, 142, 0.38)"></use><use xlink:href="#SvgjsPath3179" x="210" y="330" stroke="rgba(28, 83, 142, 0.38)"></use><use xlink:href="#SvgjsPath3183" x="210" y="390" stroke="rgba(28, 83, 142, 0.38)"></use><use xlink:href="#SvgjsPath3181" x="210" y="450" stroke="rgba(28, 83, 142, 0.38)"></use><use xlink:href="#SvgjsPath3181" x="210" y="510" stroke="rgba(28, 83, 142, 0.38)"></use><use xlink:href="#SvgjsPath3184" x="270" y="30" stroke="rgba(28, 83, 142, 0.38)"></use><use xlink:href="#SvgjsPath3183" x="270" y="90" stroke="rgba(28, 83, 142, 0.38)"></use><use xlink:href="#SvgjsPath3180" x="270" y="150" stroke="rgba(28, 83, 142, 0.38)"></use><use xlink:href="#SvgjsPath3180" x="270" y="210" stroke="rgba(28, 83, 142, 0.38)"></use><use xlink:href="#SvgjsPath3180" x="270" y="270" stroke="rgba(28, 83, 142, 0.38)"></use><use xlink:href="#SvgjsPath3183" x="270" y="330" stroke="rgba(28, 83, 142, 0.38)"></use><use xlink:href="#SvgjsPath3183" x="270" y="390" stroke="rgba(28, 83, 142, 0.38)"></use><use xlink:href="#SvgjsPath3179" x="270" y="450" stroke="rgba(28, 83, 142, 0.38)"></use><use xlink:href="#SvgjsPath3184" x="270" y="510" stroke="rgba(28, 83, 142, 0.38)"></use><use xlink:href="#SvgjsPath3180" x="330" y="30" stroke="rgba(28, 83, 142, 0.38)"></use><use xlink:href="#SvgjsPath3183" x="330" y="90" stroke="rgba(28, 83, 142, 0.38)"></use><use xlink:href="#SvgjsPath3183" x="330" y="150" stroke="rgba(28, 83, 142, 0.38)"></use><use xlink:href="#SvgjsPath3183" x="330" y="210" stroke="rgba(28, 83, 142, 0.38)"></use><use xlink:href="#SvgjsPath3180" x="330" y="270" stroke="rgba(28, 83, 142, 0.38)"></use><use xlink:href="#SvgjsPath3183" x="330" y="330" stroke="rgba(28, 83, 142, 0.38)"></use><use xlink:href="#SvgjsPath3184" x="330" y="390" stroke="rgba(28, 83, 142, 0.38)"></use><use xlink:href="#SvgjsPath3180" x="330" y="450" stroke="rgba(28, 83, 142, 0.38)"></use><use xlink:href="#SvgjsPath3180" x="330" y="510" stroke="rgba(28, 83, 142, 0.38)"></use><use xlink:href="#SvgjsPath3183" x="390" y="30" stroke="rgba(28, 83, 142, 0.38)"></use><use xlink:href="#SvgjsPath3181" x="390" y="90" stroke="rgba(28, 83, 142, 0.38)"></use><use xlink:href="#SvgjsPath3180" x="390" y="150" stroke="rgba(28, 83, 142, 0.38)"></use><use xlink:href="#SvgjsPath3180" x="390" y="210" stroke="rgba(28, 83, 142, 0.38)"></use><use xlink:href="#SvgjsPath3183" x="390" y="270" stroke="rgba(28, 83, 142, 0.38)"></use><use xlink:href="#SvgjsPath3181" x="390" y="330" stroke="rgba(28, 83, 142, 0.38)"></use><use xlink:href="#SvgjsPath3179" x="390" y="390" stroke="rgba(28, 83, 142, 0.38)"></use><use xlink:href="#SvgjsPath3184" x="390" y="450" stroke="rgba(28, 83, 142, 0.38)"></use><use xlink:href="#SvgjsPath3181" x="390" y="510" stroke="rgba(28, 83, 142, 0.38)"></use><use xlink:href="#SvgjsPath3181" x="450" y="30" stroke="rgba(28, 83, 142, 0.38)"></use><use xlink:href="#SvgjsPath3181" x="450" y="90" stroke="rgba(28, 83, 142, 0.38)"></use><use xlink:href="#SvgjsPath3183" x="450" y="150" stroke="rgba(28, 83, 142, 0.38)"></use><use xlink:href="#SvgjsPath3180" x="450" y="210" stroke="rgba(28, 83, 142, 0.38)"></use><use xlink:href="#SvgjsPath3180" x="450" y="270" stroke="rgba(28, 83, 142, 0.38)"></use><use xlink:href="#SvgjsPath3180" x="450" y="330" stroke="rgba(28, 83, 142, 0.38)"></use><use xlink:href="#SvgjsPath3184" x="450" y="390" stroke="rgba(28, 83, 142, 0.38)"></use><use xlink:href="#SvgjsPath3180" x="450" y="450" stroke="rgba(28, 83, 142, 0.38)"></use><use xlink:href="#SvgjsPath3180" x="450" y="510" stroke="rgba(28, 83, 142, 0.38)"></use><use xlink:href="#SvgjsPath3180" x="510" y="30" stroke="rgba(28, 83, 142, 0.38)"></use><use xlink:href="#SvgjsPath3179" x="510" y="90" stroke="rgba(28, 83, 142, 0.38)"></use><use xlink:href="#SvgjsPath3183" x="510" y="150" stroke="rgba(28, 83, 142, 0.38)"></use><use xlink:href="#SvgjsPath3181" x="510" y="210" stroke="rgba(28, 83, 142, 0.38)"></use><use xlink:href="#SvgjsPath3183" x="510" y="270" stroke="rgba(28, 83, 142, 0.38)"></use><use xlink:href="#SvgjsPath3184" x="510" y="330" stroke="rgba(28, 83, 142, 0.38)"></use><use xlink:href="#SvgjsPath3179" x="510" y="390" stroke="rgba(28, 83, 142, 0.38)"></use><use xlink:href="#SvgjsPath3180" x="510" y="450" stroke="rgba(28, 83, 142, 0.38)"></use><use xlink:href="#SvgjsPath3181" x="510" y="510" stroke="rgba(28, 83, 142, 0.38)"></use><use xlink:href="#SvgjsPath3180" x="570" y="30" stroke="rgba(28, 83, 142, 0.38)"></use><use xlink:href="#SvgjsPath3183" x="570" y="90" stroke="rgba(28, 83, 142, 0.38)"></use><use xlink:href="#SvgjsPath3182" x="570" y="150" stroke="rgba(28, 83, 142, 0.38)" stroke-width="3"></use><use xlink:href="#SvgjsPath3184" x="570" y="210" stroke="rgba(28, 83, 142, 0.38)"></use><use xlink:href="#SvgjsPath3184" x="570" y="270" stroke="rgba(28, 83, 142, 0.38)"></use><use xlink:href="#SvgjsPath3180" x="570" y="330" stroke="rgba(28, 83, 142, 0.38)"></use><use xlink:href="#SvgjsPath3184" x="570" y="390" stroke="rgba(28, 83, 142, 0.38)"></use><use xlink:href="#SvgjsPath3181" x="570" y="450" stroke="rgba(28, 83, 142, 0.38)"></use><use xlink:href="#SvgjsPath3183" x="570" y="510" stroke="rgba(28, 83, 142, 0.38)"></use><use xlink:href="#SvgjsPath3183" x="630" y="30" stroke="rgba(28, 83, 142, 0.38)"></use><use xlink:href="#SvgjsPath3182" x="630" y="90" stroke="rgba(28, 83, 142, 0.38)" stroke-width="3"></use><use xlink:href="#SvgjsPath3184" x="630" y="150" stroke="rgba(28, 83, 142, 0.38)"></use><use xlink:href="#SvgjsPath3181" x="630" y="210" stroke="rgba(28, 83, 142, 0.38)"></use><use xlink:href="#SvgjsPath3180" x="630" y="270" stroke="rgba(28, 83, 142, 0.38)"></use><use xlink:href="#SvgjsPath3183" x="630" y="330" stroke="rgba(28, 83, 142, 0.38)"></use><use xlink:href="#SvgjsPath3181" x="630" y="390" stroke="rgba(28, 83, 142, 0.38)"></use><use xlink:href="#SvgjsPath3181" x="630" y="450" stroke="rgba(28, 83, 142, 0.38)"></use><use xlink:href="#SvgjsPath3183" x="630" y="510" stroke="rgba(28, 83, 142, 0.38)"></use><use xlink:href="#SvgjsPath3180" x="690" y="30" stroke="rgba(28, 83, 142, 0.38)"></use><use xlink:href="#SvgjsPath3181" x="690" y="90" stroke="rgba(28, 83, 142, 0.38)"></use><use xlink:href="#SvgjsPath3180" x="690" y="150" stroke="rgba(28, 83, 142, 0.38)"></use><use xlink:href="#SvgjsPath3180" x="690" y="210" stroke="rgba(28, 83, 142, 0.38)"></use><use xlink:href="#SvgjsPath3180" x="690" y="270" stroke="rgba(28, 83, 142, 0.38)"></use><use xlink:href="#SvgjsPath3180" x="690" y="330" stroke="rgba(28, 83, 142, 0.38)"></use><use xlink:href="#SvgjsPath3180" x="690" y="390" stroke="rgba(28, 83, 142, 0.38)"></use><use xlink:href="#SvgjsPath3181" x="690" y="450" stroke="rgba(28, 83, 142, 0.38)"></use><use xlink:href="#SvgjsPath3179" x="690" y="510" stroke="rgba(28, 83, 142, 0.38)"></use></symbol></svg>