<svg xmlns="http://www.w3.org/2000/svg" version="1.1" xmlns:xlink="http://www.w3.org/1999/xlink" xmlns:svgjs="http://svgjs.com/svgjs" width="1156" height="500" preserveAspectRatio="none" viewBox="0 0 1156 500"><g mask="url(&quot;#SvgjsMask1078&quot;)" fill="none"><rect width="1156" height="500" x="0" y="0" fill="url(#SvgjsLinearGradient1079)"></rect><path d="M -163.5765557379728,128 C -105.78,175 9.82,352 125.4234442620272,363 C 241.02,374 298.82,189 414.4234442620272,183 C 530.02,177 587.82,321.8 703.4234442620273,333 C 819.02,344.2 876.82,241.6 992.4234442620273,239 C 1108.02,236.4 1248.71,329.8 1281.4234442620273,320 C 1314.14,310.2 1181.08,216 1156,190" stroke="rgba(247, 72, 211, 0.8)" stroke-width="2"></path><path d="M -147.68785668410223,265 C -89.89,243.2 25.71,147.8 141.31214331589777,156 C 256.91,164.2 314.71,295.2 430.31214331589774,306 C 545.91,316.8 603.71,212.4 719.3121433158977,210 C 834.91,207.6 892.71,304.4 1008.3121433158977,294 C 1123.91,283.6 1267.77,140.8 1297.3121433158979,158 C 1326.85,175.2 1184.26,335.6 1156,380" stroke="rgba(247, 72, 211, 0.8)" stroke-width="2"></path><path d="M -346.4324555475283,188 C -288.63,228.6 -173.03,385.6 -57.43245554752831,391 C 58.17,396.4 115.97,222.2 231.56754445247168,215 C 347.17,207.8 404.97,379.4 520.5675444524717,355 C 636.17,330.6 693.97,90.4 809.5675444524717,93 C 925.17,95.6 1029.28,356.2 1098.5675444524718,368 C 1167.85,379.8 1144.51,195.2 1156,152" stroke="rgba(247, 72, 211, 0.8)" stroke-width="2"></path><path d="M -327.85032898596603,318 C -270.05,293.8 -154.45,198.4 -38.85032898596602,197 C 76.75,195.6 134.55,310.4 250.14967101403397,311 C 365.75,311.6 423.55,204.8 539.149671014034,200 C 654.75,195.2 712.55,303.2 828.149671014034,287 C 943.75,270.8 1051.58,114.2 1117.149671014034,119 C 1182.72,123.8 1148.23,272.6 1156,311" stroke="rgba(247, 72, 211, 0.8)" stroke-width="2"></path><path d="M -242.7158900771309,240 C -184.92,242.8 -69.32,259 46.28410992286911,254 C 161.88,249 219.68,193.6 335.2841099228691,215 C 450.88,236.4 508.68,373.4 624.2841099228691,361 C 739.88,348.6 797.68,155 913.2841099228691,153 C 1028.88,151 1153.74,347 1202.2841099228692,351 C 1250.83,355 1165.26,208.6 1156,173" stroke="rgba(247, 72, 211, 0.8)" stroke-width="2"></path><path d="M -510.06615665373323,233 C -452.27,257.2 -336.67,374.8 -221.06615665373323,354 C -105.47,333.2 -47.67,135.4 67.93384334626677,129 C 183.53,122.6 241.33,324 356.93384334626677,322 C 472.53,320 530.33,125.2 645.9338433462667,119 C 761.53,112.8 832.92,297.2 934.9338433462667,291 C 1036.95,284.8 1111.79,128.6 1156,88" stroke="rgba(247, 72, 211, 0.8)" stroke-width="2"></path></g><defs><mask id="SvgjsMask1078"><rect width="1156" height="500" fill="#ffffff"></rect></mask><linearGradient x1="14.19%" y1="-32.8%" x2="85.81%" y2="132.8%" gradientUnits="userSpaceOnUse" id="SvgjsLinearGradient1079"><stop stop-color="#0e2a47" offset="0"></stop><stop stop-color="rgba(17, 0, 71, 1)" offset="1"></stop></linearGradient></defs></svg>